<?xml version="1.0" encoding="UTF-8" standalone="no"?>
<svg
   xmlns:dc="http://purl.org/dc/elements/1.1/"
   xmlns:cc="http://creativecommons.org/ns#"
   xmlns:rdf="http://www.w3.org/1999/02/22-rdf-syntax-ns#"
   xmlns:svg="http://www.w3.org/2000/svg"
   xmlns="http://www.w3.org/2000/svg"
   xmlns:sodipodi="http://sodipodi.sourceforge.net/DTD/sodipodi-0.dtd"
   xmlns:inkscape="http://www.inkscape.org/namespaces/inkscape"
   inkscape:version="1.0 (6e3e5246a0, 2020-05-07)"
   sodipodi:docname="github.svg"
   id="svg4"
   version="1.1"
   viewBox="0 0 24 24"
   role="img">
  <metadata
     id="metadata10">
    <rdf:RDF>
      <cc:Work
         rdf:about="">
        <dc:format>image/svg+xml</dc:format>
        <dc:type
           rdf:resource="http://purl.org/dc/dcmitype/StillImage" />
      </cc:Work>
    </rdf:RDF>
  </metadata>
  <defs
     id="defs8" />
  <sodipodi:namedview
     inkscape:current-layer="svg4"
     inkscape:window-maximized="1"
     inkscape:window-y="27"
     inkscape:window-x="72"
     inkscape:cy="12"
     inkscape:cx="7.2965517"
     inkscape:zoom="36.25"
     showgrid="false"
     id="namedview6"
     inkscape:window-height="1016"
     inkscape:window-width="1848"
     inkscape:pageshadow="2"
     inkscape:pageopacity="0"
     guidetolerance="10"
     gridtolerance="10"
     objecttolerance="10"
     borderopacity="1"
     bordercolor="#666666"
     pagecolor="#ffffff" />
  <path
     style="stroke-width:0.833333"
     id="path2"
     d="m 12,2.24761 c -5.525,0 -10,4.4775 -10,10 0,4.419167 2.865,8.166667 6.8375,9.4875 0.5,0.09417 0.683333,-0.215 0.683333,-0.480833 0,-0.2375 -0.0083,-0.866667 -0.0125,-1.7 C 6.7266667,20.15761 6.14,18.21261 6.14,18.21261 5.685,17.058443 5.0275,16.75011 5.0275,16.75011 c -0.9058333,-0.62 0.07,-0.6075 0.07,-0.6075 1.0041667,0.07 1.5316667,1.03 1.5316667,1.03 0.8916666,1.529167 2.3408333,1.0875 2.9125003,0.831667 0.09,-0.646667 0.3475,-1.0875 0.633333,-1.3375 -2.2208333,-0.25 -4.555,-1.11 -4.555,-4.941667 0,-1.091667 0.3875,-1.9833333 1.0291667,-2.6833333 -0.1125,-0.2525 -0.45,-1.2691667 0.0875,-2.6466667 0,0 0.8375,-0.2683333 2.7500003,1.025 0.8,-0.2225 1.65,-0.3325 2.5,-0.3375 0.85,0.005 1.7,0.115 2.5,0.3375 1.9,-1.2933333 2.7375,-1.025 2.7375,-1.025 0.5375,1.3775 0.2,2.3941667 0.1,2.6466667 0.6375,0.7 1.025,1.5916663 1.025,2.6833333 0,3.841667 -2.3375,4.6875 -4.5625,4.933333 0.35,0.3 0.675,0.913334 0.675,1.85 0,1.338334 -0.0125,2.413334 -0.0125,2.738334 0,0.2625 0.175,0.575 0.6875,0.475 C 19.1375,20.41011 22,16.66011 22,12.24761 c 0,-5.5225 -4.4775,-10 -10,-10" />
</svg>
